<?xml version="1.0" encoding="UTF-8" standalone="no"?>
<!DOCTYPE svg PUBLIC "-//W3C//DTD SVG 1.1//EN" "http://www.w3.org/Graphics/SVG/1.1/DTD/svg11.dtd">
<svg width="100%" height="100%" viewBox="0 0 163 163" version="1.1" xmlns="http://www.w3.org/2000/svg" xmlns:xlink="http://www.w3.org/1999/xlink" xml:space="preserve" xmlns:serif="http://www.serif.com/" style="fill-rule:evenodd;clip-rule:evenodd;stroke-linejoin:round;stroke-miterlimit:2;">
    <g transform="matrix(1,0,0,1,-420,-432)">
        <g transform="matrix(1,0,0,1,226,0)">
            <path d="M275.5,432C320.481,432 357,468.519 357,513.5C357,558.481 320.481,595 275.5,595C230.519,595 194,558.481 194,513.5C194,468.519 230.519,432 275.5,432ZM317.582,555.52C320.222,552.88 320.222,548.7 317.472,546.06L297.672,526.26C301.742,520.43 304.052,513.39 304.052,505.8C304.052,485.78 287.772,469.5 267.752,469.5C247.732,469.5 231.452,485.78 231.452,505.8C231.452,525.82 247.732,542.1 267.752,542.1C275.452,542.1 282.492,539.68 288.322,535.72L308.122,555.52C310.762,558.16 314.942,558.16 317.582,555.52ZM267.862,482.7C280.622,482.7 290.962,493.04 290.962,505.8C290.962,518.56 280.622,528.9 267.862,528.9C255.102,528.9 244.762,518.56 244.762,505.8C244.762,493.04 255.102,482.7 267.862,482.7Z" style="fill:rgb(118,255,138);"/>
        </g>
    </g>
</svg>
