<?xml version="1.0" encoding="UTF-8" standalone="no"?>
<!DOCTYPE svg PUBLIC "-//W3C//DTD SVG 1.1//EN" "http://www.w3.org/Graphics/SVG/1.1/DTD/svg11.dtd">
<svg width="100%" height="100%" viewBox="0 0 163 163" version="1.1" xmlns="http://www.w3.org/2000/svg" xmlns:xlink="http://www.w3.org/1999/xlink" xml:space="preserve" xmlns:serif="http://www.serif.com/" style="fill-rule:evenodd;clip-rule:evenodd;stroke-linejoin:round;stroke-miterlimit:2;">
    <g transform="matrix(1,0,0,1,-194,-432)">
        <path d="M275.5,432C320.481,432 357,468.519 357,513.5C357,558.481 320.481,595 275.5,595C230.519,595 194,558.481 194,513.5C194,468.519 230.519,432 275.5,432ZM291.121,479.081L308.328,496.291L314.301,490.319C315.543,489.077 315.543,487.066 314.301,485.824L301.587,473.11C300.345,471.868 298.334,471.868 297.092,473.11L291.121,479.081ZM311.122,508.074L276.705,473.654C273.703,470.653 269.711,469 265.464,469L251.661,469C242.897,469 235.768,476.13 235.768,484.893L235.768,548.464C235.768,553.723 240.045,558 245.304,558L302.518,558C307.776,558 312.054,553.723 312.054,548.464L312.054,510.321C312.054,509.479 311.719,508.67 311.122,508.074ZM245.304,484.893C245.304,481.382 248.149,478.536 251.661,478.536L264.375,478.536C267.886,478.536 270.732,481.382 270.732,484.893C270.732,488.404 267.886,491.25 264.375,491.25L251.661,491.25C248.149,491.25 245.304,488.404 245.304,484.893ZM272.321,545.286C264.422,545.286 258.018,538.809 258.018,530.82C258.018,522.098 265.894,510.531 269.957,505.145C271.147,503.566 273.486,503.572 274.669,505.156C278.728,510.587 286.625,522.255 286.625,530.82C286.625,538.809 280.221,545.286 272.321,545.286Z" style="fill:rgb(118,255,138);"/>
    </g>
</svg>
